<svg xmlns="http://www.w3.org/2000/svg" viewBox="0 0 60 60" width="60" height="60">
  <rect width="60" height="60" rx="13" fill="white"/>
  <g transform="translate(12, 10)">
    <path d="M33.9 2.2L20.5 11.9l2.4-5.7L33.9 2.2z" fill="#E2761B"/>
    <path d="M2.1 2.2L15.4 12l-2.3-5.8L2.1 2.2z" fill="#E4761B"/>
    <path d="M29 25l-3.4 5.3 7.4 2-2.1-7.2L29 25z" fill="#E4761B"/>
    <path d="M3.6 25.1L1.5 32.3l7.4-2L5.5 25l-1.9.1z" fill="#E4761B"/>
    <path d="M12.7 16.1l-2.1 3.3 7.5.3-.3-8-5.1 4.4z" fill="#E4761B"/>
    <path d="M23.3 16.1l-5.2-4.5-.2 8.1 7.5-.3-2.1-3.3z" fill="#E4761B"/>
    <path d="M8.9 30.3l4.5-2.2-3.9-3-.6 5.2z" fill="#E4761B"/>
    <path d="M22.6 28.1l4.5 2.2-.6-5.2-3.9 3z" fill="#E4761B"/>
    <path d="M27.1 30.3l-4.5-2.2.4 2.9-.1 1.2 4.2-1.9z" fill="#D7C1B3"/>
    <path d="M8.9 30.3l4.2 1.9-.1-1.2.4-2.9-4.5 2.2z" fill="#D7C1B3"/>
    <path d="M13.2 23.3l-3.8-1.1 2.7-1.2 1.1 2.3z" fill="#233447"/>
    <path d="M22.8 23.3l1.1-2.3 2.7 1.2-3.8 1.1z" fill="#233447"/>
    <path d="M8.9 30.3l.7-5.3-4 .1 3.3 5.2z" fill="#CD6116"/>
    <path d="M26.4 25l.7 5.3 3.3-5.2-4-.1z" fill="#CD6116"/>
    <path d="M17.8 19.7l-.7 3.7.9 4.5.2-5.9-.4-2.3z" fill="#F6851B"/>
    <path d="M23.1 19.7l-.4 2.3.2 5.9.9-4.5-.7-3.7z" fill="#F6851B"/>
    <path d="M30.5 19.4l-7.4.3.7 3.6 1.1-2.3 2.7 1.2 2.9-2.8z" fill="#CD6116"/>
    <path d="M9.4 22.2l2.7-1.2 1.1 2.3.7-3.6-7.4-.3 2.9 2.8z" fill="#CD6116"/>
    <path d="M5.6 19.4l3.2 6.4-.1-2.5-3.1-3.9z" fill="#E4751F"/>
    <path d="M27.6 23.3l-.1 2.5 3.1-6.4-3 3.9z" fill="#E4751F"/>
  </g>
</svg>
