<svg xmlns="http://www.w3.org/2000/svg" viewBox="0 0 60 60" width="60" height="60">
  <rect width="60" height="60" rx="14" fill="white"/>
  <g transform="translate(12, 12)">
    <polygon points="18,0 36,8 36,28 18,36 0,28 0,8" fill="#E2761B" opacity="0"/>
    <path d="M33.4 2.4L20.8 11.8l2.3-5.6L33.4 2.4z" fill="#E2761B"/>
    <path d="M2.6 2.4l12.5 9.5-2.2-5.7L2.6 2.4z" fill="#E4761B"/>
    <path d="M28.8 24.6l-3.4 5.2 7.3 2-2.1-7.1-1.8-.1z" fill="#E4761B"/>
    <path d="M3.4 24.7l-2.1 7.1 7.3-2-3.4-5.2-1.8.1z" fill="#E4761B"/>
    <path d="M12.6 15.8l-2.1 3.2 7.4.3-.3-7.9-5 4.4z" fill="#E4761B"/>
    <path d="M23.4 15.8l-5.1-4.5-.2 8 7.4-.3-2.1-3.2z" fill="#E4761B"/>
    <path d="M8.7 29.8l4.5-2.2-3.9-3-.6 5.2z" fill="#E4761B"/>
    <path d="M22.8 27.6l4.5 2.2-.6-5.2-3.9 3z" fill="#E4761B"/>
    <path d="M27.3 29.8l-4.5-2.2.4 2.8-.1 1.2 4.2-1.8z" fill="#D7C1B3"/>
    <path d="M8.7 29.8l4.2 1.8-.1-1.2.4-2.8-4.5 2.2z" fill="#D7C1B3"/>
    <path d="M13 22.9l-3.7-1.1 2.6-1.2 1.1 2.3z" fill="#233447"/>
    <path d="M23 22.9l1.1-2.3 2.6 1.2-3.7 1.1z" fill="#233447"/>
    <path d="M8.7 29.8l.6-5.2-4 .1 3.4 5.1z" fill="#CD6116"/>
    <path d="M26.7 24.6l.6 5.2 3.4-5.1-4-.1z" fill="#CD6116"/>
    <path d="M30.5 19l-7.4.3.7 3.7 1.1-2.3 2.6 1.2 3-2.9z" fill="#CD6116"/>
    <path d="M9.3 21.9l2.6-1.2 1.1 2.3.7-3.7-7.4-.3 3 2.9z" fill="#CD6116"/>
    <path d="M5.5 19l3.2 6.3-.1-2.4-3.1-3.9z" fill="#E4751F"/>
    <path d="M27.5 22.9l-.1 2.4 3.1-6.3-3 3.9z" fill="#E4751F"/>
    <path d="M12.9 19.3l-.7 3.7.9 4.4.2-5.8-.4-2.3z" fill="#F6851B"/>
    <path d="M23.1 19.3l-.4 2.3.2 5.8.9-4.4-.7-3.7z" fill="#F6851B"/>
  </g>
</svg>
